<mxfile host="app.diagrams.net" modified="2024-02-05T00:23:39.131Z" agent="Mozilla/5.0 (Windows NT 10.0; Win64; x64) AppleWebKit/537.36 (KHTML, like Gecko) Chrome/121.0.0.0 Safari/537.36" etag="dyQZuVrFl55FUu6uwBf4" version="23.1.1" type="device">
  <diagram name="Page-1" id="oGCLeWAvXuXbn-B5msPY">
    <mxGraphModel dx="1302" dy="691" grid="1" gridSize="10" guides="1" tooltips="1" connect="1" arrows="1" fold="1" page="1" pageScale="1" pageWidth="827" pageHeight="1169" math="0" shadow="0">
      <root>
        <mxCell id="0" />
        <mxCell id="1" parent="0" />
        <mxCell id="JvqmPqwPNSDXQVp-4gNF-6" value="" style="rounded=1;whiteSpace=wrap;html=1;" vertex="1" parent="1">
          <mxGeometry x="270" y="630" width="500" height="400" as="geometry" />
        </mxCell>
        <mxCell id="JvqmPqwPNSDXQVp-4gNF-1" value="" style="rounded=0;whiteSpace=wrap;html=1;" vertex="1" parent="1">
          <mxGeometry x="44" y="620" width="740" height="416.25" as="geometry" />
        </mxCell>
        <mxCell id="JvqmPqwPNSDXQVp-4gNF-2" value="Logo" style="rounded=1;whiteSpace=wrap;html=1;" vertex="1" parent="1">
          <mxGeometry x="50" y="630" width="200" height="70" as="geometry" />
        </mxCell>
        <mxCell id="JvqmPqwPNSDXQVp-4gNF-3" value="" style="rounded=1;whiteSpace=wrap;html=1;" vertex="1" parent="1">
          <mxGeometry x="50" y="710" width="200" height="320" as="geometry" />
        </mxCell>
        <mxCell id="JvqmPqwPNSDXQVp-4gNF-4" value="Champ de prises de commentaire" style="rounded=0;whiteSpace=wrap;html=1;" vertex="1" parent="1">
          <mxGeometry x="70" y="740" width="160" height="230" as="geometry" />
        </mxCell>
        <mxCell id="JvqmPqwPNSDXQVp-4gNF-5" value="Sauvegarde du commentaire" style="rounded=0;whiteSpace=wrap;html=1;fillColor=#D9D9D9;" vertex="1" parent="1">
          <mxGeometry x="70" y="980" width="160" height="30" as="geometry" />
        </mxCell>
        <mxCell id="JvqmPqwPNSDXQVp-4gNF-7" value="Vue principale" style="rounded=0;whiteSpace=wrap;html=1;" vertex="1" parent="1">
          <mxGeometry x="300" y="660" width="450" height="240" as="geometry" />
        </mxCell>
        <mxCell id="JvqmPqwPNSDXQVp-4gNF-8" value="" style="rounded=0;whiteSpace=wrap;html=1;" vertex="1" parent="1">
          <mxGeometry x="300" y="920" width="450" height="80" as="geometry" />
        </mxCell>
        <mxCell id="JvqmPqwPNSDXQVp-4gNF-9" value="Vue d&#39;un joueur" style="rounded=1;whiteSpace=wrap;html=1;" vertex="1" parent="1">
          <mxGeometry x="310" y="930" width="120" height="60" as="geometry" />
        </mxCell>
        <mxCell id="JvqmPqwPNSDXQVp-4gNF-10" value="Vue d&#39;un joueur" style="rounded=1;whiteSpace=wrap;html=1;" vertex="1" parent="1">
          <mxGeometry x="460" y="930" width="120" height="60" as="geometry" />
        </mxCell>
        <mxCell id="JvqmPqwPNSDXQVp-4gNF-11" value="Vue d&#39;un joueur" style="rounded=1;whiteSpace=wrap;html=1;" vertex="1" parent="1">
          <mxGeometry x="610" y="930" width="120" height="60" as="geometry" />
        </mxCell>
        <mxCell id="JvqmPqwPNSDXQVp-4gNF-14" value="Chat" style="ellipse;whiteSpace=wrap;html=1;aspect=fixed;" vertex="1" parent="1">
          <mxGeometry x="730" y="990" width="40" height="40" as="geometry" />
        </mxCell>
        <mxCell id="JvqmPqwPNSDXQVp-4gNF-15" value="" style="rounded=0;whiteSpace=wrap;html=1;" vertex="1" parent="1">
          <mxGeometry x="44" y="1150" width="740" height="416.25" as="geometry" />
        </mxCell>
        <mxCell id="JvqmPqwPNSDXQVp-4gNF-16" value="Logo" style="rounded=1;whiteSpace=wrap;html=1;" vertex="1" parent="1">
          <mxGeometry x="50" y="1160" width="200" height="70" as="geometry" />
        </mxCell>
        <mxCell id="JvqmPqwPNSDXQVp-4gNF-17" value="" style="rounded=1;whiteSpace=wrap;html=1;" vertex="1" parent="1">
          <mxGeometry x="50" y="1240" width="200" height="320" as="geometry" />
        </mxCell>
        <mxCell id="JvqmPqwPNSDXQVp-4gNF-18" value="Participant 1" style="rounded=0;whiteSpace=wrap;html=1;" vertex="1" parent="1">
          <mxGeometry x="70" y="1270" width="160" height="40" as="geometry" />
        </mxCell>
        <mxCell id="JvqmPqwPNSDXQVp-4gNF-20" value="Participant 2" style="rounded=0;whiteSpace=wrap;html=1;" vertex="1" parent="1">
          <mxGeometry x="70" y="1330" width="160" height="40" as="geometry" />
        </mxCell>
        <mxCell id="JvqmPqwPNSDXQVp-4gNF-21" value="Participant 3" style="rounded=0;whiteSpace=wrap;html=1;" vertex="1" parent="1">
          <mxGeometry x="70" y="1390" width="160" height="40" as="geometry" />
        </mxCell>
        <mxCell id="JvqmPqwPNSDXQVp-4gNF-22" value="" style="rounded=0;whiteSpace=wrap;html=1;" vertex="1" parent="1">
          <mxGeometry x="270" y="1160" width="500" height="390" as="geometry" />
        </mxCell>
        <mxCell id="JvqmPqwPNSDXQVp-4gNF-23" value="Image et nom du scénario" style="rounded=0;whiteSpace=wrap;html=1;" vertex="1" parent="1">
          <mxGeometry x="380" y="1170" width="280" height="120" as="geometry" />
        </mxCell>
        <mxCell id="JvqmPqwPNSDXQVp-4gNF-24" value="&lt;font style=&quot;font-size: 20px;&quot;&gt;&amp;lt;&lt;/font&gt;" style="ellipse;whiteSpace=wrap;html=1;aspect=fixed;" vertex="1" parent="1">
          <mxGeometry x="330" y="1212.5" width="35" height="35" as="geometry" />
        </mxCell>
        <mxCell id="JvqmPqwPNSDXQVp-4gNF-25" value="&lt;span style=&quot;font-size: 20px;&quot;&gt;&amp;gt;&lt;/span&gt;" style="ellipse;whiteSpace=wrap;html=1;aspect=fixed;" vertex="1" parent="1">
          <mxGeometry x="670" y="1212.5" width="35" height="35" as="geometry" />
        </mxCell>
        <mxCell id="JvqmPqwPNSDXQVp-4gNF-26" value="" style="endArrow=none;html=1;rounded=0;" edge="1" parent="1">
          <mxGeometry width="50" height="50" relative="1" as="geometry">
            <mxPoint x="470" y="1520" as="sourcePoint" />
            <mxPoint x="470" y="1310" as="targetPoint" />
          </mxGeometry>
        </mxCell>
        <mxCell id="JvqmPqwPNSDXQVp-4gNF-28" value="Paramètre 1" style="rounded=0;whiteSpace=wrap;html=1;" vertex="1" parent="1">
          <mxGeometry x="287.5" y="1330" width="162.5" height="20" as="geometry" />
        </mxCell>
        <mxCell id="JvqmPqwPNSDXQVp-4gNF-29" value="Paramètre 2" style="rounded=0;whiteSpace=wrap;html=1;" vertex="1" parent="1">
          <mxGeometry x="287.5" y="1360" width="162.5" height="20" as="geometry" />
        </mxCell>
        <mxCell id="JvqmPqwPNSDXQVp-4gNF-30" value="Paramètre 3" style="rounded=0;whiteSpace=wrap;html=1;" vertex="1" parent="1">
          <mxGeometry x="287.5" y="1390" width="162.5" height="20" as="geometry" />
        </mxCell>
        <mxCell id="JvqmPqwPNSDXQVp-4gNF-31" value="Paramètre 4" style="rounded=0;whiteSpace=wrap;html=1;" vertex="1" parent="1">
          <mxGeometry x="287.5" y="1420" width="162.5" height="20" as="geometry" />
        </mxCell>
        <mxCell id="JvqmPqwPNSDXQVp-4gNF-32" value="Énigme" style="rounded=0;whiteSpace=wrap;html=1;" vertex="1" parent="1">
          <mxGeometry x="570" y="1320" width="120" height="40" as="geometry" />
        </mxCell>
        <mxCell id="JvqmPqwPNSDXQVp-4gNF-33" value="&lt;font style=&quot;font-size: 17px;&quot;&gt;&amp;gt;&lt;/font&gt;" style="ellipse;whiteSpace=wrap;html=1;aspect=fixed;" vertex="1" parent="1">
          <mxGeometry x="720" y="1326.25" width="27.5" height="27.5" as="geometry" />
        </mxCell>
        <mxCell id="JvqmPqwPNSDXQVp-4gNF-34" value="&lt;font style=&quot;font-size: 17px;&quot;&gt;&amp;lt;&lt;/font&gt;" style="ellipse;whiteSpace=wrap;html=1;aspect=fixed;" vertex="1" parent="1">
          <mxGeometry x="520" y="1326.25" width="27.5" height="27.5" as="geometry" />
        </mxCell>
        <mxCell id="JvqmPqwPNSDXQVp-4gNF-35" value="Poids élement 1" style="rounded=0;whiteSpace=wrap;html=1;" vertex="1" parent="1">
          <mxGeometry x="570" y="1380" width="120" height="20" as="geometry" />
        </mxCell>
        <mxCell id="JvqmPqwPNSDXQVp-4gNF-36" value="Poids élement 2" style="rounded=0;whiteSpace=wrap;html=1;" vertex="1" parent="1">
          <mxGeometry x="570" y="1410" width="120" height="20" as="geometry" />
        </mxCell>
        <mxCell id="JvqmPqwPNSDXQVp-4gNF-37" value="Poids élement 3" style="rounded=0;whiteSpace=wrap;html=1;" vertex="1" parent="1">
          <mxGeometry x="570" y="1440" width="120" height="20" as="geometry" />
        </mxCell>
      </root>
    </mxGraphModel>
  </diagram>
</mxfile>
